<svg id="Layer_1" data-name="Layer 1" xmlns="http://www.w3.org/2000/svg" viewBox="0 0 219.6455 61.3842"><defs><style>.cls-1{font-size:16px;font-family:BreeSerif-Regular, Bree Serif;}.cls-1,.cls-3{fill:#292971;}.cls-2{fill:#5977bb;}</style></defs><text class="cls-1" transform="translate(87.3589 36.3676)">Dental Laboratory</text><path class="cls-2" d="M246.6667,130.5428s-2.0971,1.417-6.0115,3.9118c-1.9686,1.2239-4.4938,2.5083-7.416,4.0947a99.6818,99.6818,0,0,1-10.4617,4.3289c-.9994.3407-2.0153.73-3.0774,1.0482l-3.29.8791c-1.1271.2752-2.2651.6445-3.4575.8506l-3.6476.6638-1.8809.3323-1.9291.2022-3.9673.3934c-1.3456.0674-2.7141.0856-4.1048.1237l-2.1019.041-2.1209-.0916c-11.4553-.311-23.7092-3.5218-35.5513-7.792-5.9419-2.1274-11.5433-4.3513-16.9215-6.29A146.1445,146.1445,0,0,0,125.25,128.441a71.8875,71.8875,0,0,0-14.2234-2.0141l-3.3335-.0848-3.2161.1663-1.5723.0762c-.52.0237-1.0237.1251-1.53.1815l-2.9749.3844a91.9635,91.9635,0,0,0-18.21,5.0736c-4.1676,1.8068-6.5493,2.7891-6.5493,2.7891s1.9657-1.5887,5.6773-4.3992a74.6744,74.6744,0,0,1,17.6521-9.1459l3.1419-.9843c.54-.1564,1.0787-.357,1.64-.48l1.7059-.3726,3.54-.7447,3.7325-.4649a67.871,67.871,0,0,1,16.279.29,111.44,111.44,0,0,1,17.2391,3.88c5.7827,1.7366,11.5574,3.8329,17.3461,5.9037,11.5636,4.16,22.3154,7.6565,32.4514,8.9748l1.8848.2848,1.8675.1654,3.6738.3274,3.5852.102,1.76.0592,1.7287-.0633,3.3865-.1071c1.1145-.0171,2.1925-.1958,3.2638-.2779l3.1523-.2976c1.027-.1244,2.0211-.32,3.0032-.4677,3.9491-.52,7.4507-1.4645,10.5984-2.1222,3.0648-.9069,5.7827-1.5754,7.9491-2.286C244.2138,131.3176,246.6667,130.5428,246.6667,130.5428Z" transform="translate(-73.6411 -86.0283)"/><path class="cls-3" d="M244.6667,131.5428l-6.1544,2.738a113.7693,113.7693,0,0,1-17.6387,5.459c-1.909.448-3.9388.7552-6.0473,1.1553-2.1131.3642-4.3316.5869-6.6273.892-2.3.1874-4.688.4109-7.15.512-2.4611.0682-5.0027.1794-7.6.0962a182.2148,182.2148,0,0,1-33.4006-3.9275c-11.6345-2.3247-22.4514-5.0914-32.3249-7.0474-4.9351-.9624-9.632-1.71-14.0484-2.2348-2.2053-.1743-4.3457-.451-6.3994-.4956-1.0274-.0385-2.039-.1145-3.0254-.1245l-2.8955.0153a67.1945,67.1945,0,0,0-17.7671,2.49c-2.0977.49-3.6355,1.1483-4.725,1.4835l-1.6488.5563,1.5247-.8317a45.0079,45.0079,0,0,1,4.4772-2.2419,60.9257,60.9257,0,0,1,17.8752-4.9619l3.0141-.3517c1.03-.1011,2.0824-.1349,3.1594-.2048,2.1581-.1718,4.3908-.1051,6.7173-.13a146.6178,146.6178,0,0,1,14.7,1.1767c10.26,1.3536,21.2886,3.7209,32.7366,6.0057a271.1334,271.1334,0,0,0,32.3045,4.8977c2.4938.2432,4.927.3086,7.2968.43,2.3684.0882,4.6688.0669,6.8988.09,2.221-.0944,4.3812-.0982,6.4471-.2395,2.061-.1772,4.0585-.258,5.9471-.48a146.2551,146.2551,0,0,0,17.864-3.0346Z" transform="translate(-73.6411 -86.0283)"/><path class="cls-2" d="M91.0708,91.5635h-1.27a6.1257,6.1257,0,0,0-1.27-3.2588,3.1685,3.1685,0,0,0-2.3105-.8291,2.88,2.88,0,0,0-2.0376.6787,2.26,2.26,0,0,0-.73,1.7314,2.5038,2.5038,0,0,0,.6729,1.7,10.4079,10.4079,0,0,0,3.1992,1.9161,9.4123,9.4123,0,0,1,3.5293,2.41,4.9867,4.9867,0,0,1,1.0029,3.1709,5.4865,5.4865,0,0,1-1.72,4.0029q-1.72,1.7182-5.5542,1.7188a15.7214,15.7214,0,0,1-2.59-.2031,14.983,14.983,0,0,1-2.2979-.584q.216-2.234.2158-4.4053v-.8506h1.2442a8.0285,8.0285,0,0,0,1.1933,3.377,3.2337,3.2337,0,0,0,2.6406,1.1552,2.9429,2.9429,0,0,0,2.1582-.8A2.7456,2.7456,0,0,0,87.96,100.45a2.8445,2.8445,0,0,0-.3364-1.3965,3.4969,3.4969,0,0,0-1.0029-1.1045,15.354,15.354,0,0,0-2.4185-1.3076,10.0794,10.0794,0,0,1-3.6054-2.45,4.338,4.338,0,0,1-.9141-2.7549,4.9616,4.9616,0,0,1,1.7266-3.872,7.2507,7.2507,0,0,1,4.9765-1.5362,15.1677,15.1677,0,0,1,4.6846.8252q-.0762,1.9937-.0762,2.7676Q90.9946,90.522,91.0708,91.5635Z" transform="translate(-73.6411 -86.0283)"/><path class="cls-2" d="M109.7837,91.7539H108.603q-.876-2.6792-1.0727-3.0342a1.0977,1.0977,0,0,0-.5523-.5019,9.3251,9.3251,0,0,0-2.26-.1455h-1.2315V99.93a12.6785,12.6785,0,0,0,.1524,2.666.6677.6677,0,0,0,.3745.3877,15.4131,15.4131,0,0,0,2.3042.501v.9394q-3.8724-.139-4.9766-.14-1.4978,0-4.583.14v-.9394a12.2236,12.2236,0,0,0,2.4121-.5586.734.734,0,0,0,.3491-.4639,18.1758,18.1758,0,0,0,.0952-2.6592v-11.73H97.4819a3.6992,3.6992,0,0,0-1.4282.1777,1.3475,1.3475,0,0,0-.5776.6475,21.9893,21.9893,0,0,0-.9649,2.8564H93.356q.216-1.8662.2666-2.5771t.1142-2.7676q5.0274.1392,9.8262.1142,4.0628-.0381,5.84-.1142A44.3317,44.3317,0,0,0,109.7837,91.7539Z" transform="translate(-73.6411 -86.0283)"/><path class="cls-2" d="M110.8882,95.7021a9.4545,9.4545,0,0,1,2.6723-7.0136,9.71,9.71,0,0,1,7.1666-2.66,9.0559,9.0559,0,0,1,6.6586,2.3926,8.6062,8.6062,0,0,1,2.4185,6.4053,11.1006,11.1006,0,0,1-.9521,4.6465,8.936,8.936,0,0,1-1.9361,2.8056,8.649,8.649,0,0,1-2.4311,1.7012,10.9494,10.9494,0,0,1-4.4688.8252,8.324,8.324,0,0,1-9.1279-9.1026Zm4.3926-.6855q0,4.6217,1.6757,6.792a4.2255,4.2255,0,0,0,3.5674,1.625,4.3643,4.3643,0,0,0,2.6978-.8252,4.9664,4.9664,0,0,0,1.644-2.6465,14.8023,14.8023,0,0,0,.5459-4.2344,18.3436,18.3436,0,0,0-.33-3.5293,8.3109,8.3109,0,0,0-.9013-2.6406,4.4677,4.4677,0,0,0-1.53-1.5361,4.3676,4.3676,0,0,0-2.3169-.584,4.5078,4.5078,0,0,0-2.6914.8447,5.058,5.058,0,0,0-1.771,2.6524A13.1333,13.1333,0,0,0,115.2808,95.0166Z" transform="translate(-73.6411 -86.0283)"/><path class="cls-2" d="M131.0356,87.3486v-.9394q2.2721.1392,3.7447.14,1.5739,0,3.415-.14.534,1.4472,1.398,3.4277,2.3641,5.332,4.1821,9.0518l3.2041-6.9063q.7624-1.689,1.2139-2.7744t1.0874-2.7988q2.4067.1392,3.4965.14.9369,0,3.3951-.14v.9394q-.38.0762-.5689.1016a5.5677,5.5677,0,0,0-1.89.5078,1.4653,1.4653,0,0,0-.3286.9453q-.07.7177-.0694,5.7578,0,6.3986.0127,6.6778a4.4026,4.4026,0,0,0,.145,1.2314.7459.7459,0,0,0,.272.33,6.3075,6.3075,0,0,0,1.8579.47l.5689.1143v.9394q-3.0681-.139-4.6783-.14-1.6611,0-4.9067.14v-.9394a20.9124,20.9124,0,0,0,2.2534-.4756.88.88,0,0,0,.3745-.2861,1.0988,1.0988,0,0,0,.1714-.4825q.0447-.3047.0445-2.6025.0255-4.9893.0253-7.7949,0-.2667-.0127-1.6631-.6987,1.4472-5.1059,11.2734l-1.2827,2.8311h-.9776q-1.437-3.2373-6.4716-14.1934-.0256,1.6626-.0254,2.8184,0,6.3354.1142,8.3789a7.3815,7.3815,0,0,0,.127,1.3076.7425.7425,0,0,0,.3808.3936,8.4687,8.4687,0,0,0,1.7266.3935q.178.0381.52.1016v.9394q-1.8026-.139-3.4785-.14-1.6883,0-3.8467.14v-.9394a18.1441,18.1441,0,0,0,2.0059-.419.9931.9931,0,0,0,.5332-.4189,2.3049,2.3049,0,0,0,.1777-1.0918l.1524-8.0742q.05-2.12.0507-3.1485a8.1008,8.1008,0,0,0-.166-2.082.78.78,0,0,0-.3887-.457,8.3209,8.3209,0,0,0-1.8549-.3555C131.499,87.4209,131.2993,87.3906,131.0356,87.3486Z" transform="translate(-73.6411 -86.0283)"/><path class="cls-2" d="M167.687,104.4238v-.9394a6.6434,6.6434,0,0,0,1.7769-.458.5715.5715,0,0,0,.2412-.4844,1.3157,1.3157,0,0,0-.0762-.4072q-.2028-.5347-1.3179-3.208-1.7863-.0381-2.977-.0381-.9756,0-3.2564.0381a27.34,27.34,0,0,0-1.4238,3.6533.52.52,0,0,0,.2031.4521,7.9938,7.9938,0,0,0,1.8028.4522v.9394q-1.6-.139-3.06-.14-1.5739,0-3.1992.14v-.9394a4.5765,4.5765,0,0,0,1.5742-.5479,1.9134,1.9134,0,0,0,.5332-.61q.4959-.8,2.9634-6.1944,1.5637-3.4144,4.4634-10.1035h1.0156q1.1806,2.9825,4.8877,11.1319,2.0566,4.5307,2.4629,5.1533a2,2,0,0,0,.5586.6113,9.0685,9.0685,0,0,0,1.7646.56v.9394q-2.247-.139-4.1767-.14Q170.5434,104.2842,167.687,104.4238ZM165.2612,91.502,162.6655,97.48l2.5152.0127q.9015,0,2.5908-.0127Z" transform="translate(-73.6411 -86.0283)"/><path class="cls-3" d="M176.9673,87.3486v-.9394q2.9583.1392,4.8877.14,1.4729,0,4.0752-.0761,1.8918-.063,3.1611-.0635a9.6406,9.6406,0,0,1,3.7832.6094,6.6032,6.6032,0,0,1,3.0278,2.5771,8.325,8.325,0,0,1,1.0982,4.5068,10.4171,10.4171,0,0,1-1.4346,5.4649,9.887,9.887,0,0,1-4.0371,3.7392,11.2989,11.2989,0,0,1-5.2685,1.13q-.2923,0-2.3614-.082-2.0691-.0836-2.3232-.083-.8885,0-4.6084.1523v-.9394l.5356-.1016a5.5411,5.5411,0,0,0,1.9575-.5459,1.1088,1.1088,0,0,0,.3379-.749q.0505-.7368.0508-7.7061,0-5.1167-.1015-5.7636a.967.967,0,0,0-.3174-.6475,6.6546,6.6546,0,0,0-1.93-.5078Zm6.8174,15.3868a16.3313,16.3313,0,0,0,2.5771.2539,5.4915,5.4915,0,0,0,4.4053-1.7266q1.8918-2.209,1.8916-6.4111a7.9424,7.9424,0,0,0-1.6758-5.4717,5.4206,5.4206,0,0,0-4.2529-1.5235,21.7333,21.7333,0,0,0-2.9453.2413q-.1267,1.98-.127,7.35Q183.6577,98.5333,183.7847,102.7354Z" transform="translate(-73.6411 -86.0283)"/><path class="cls-3" d="M198.27,87.3486v-.9394q3.0622.1392,6.6577.14,4.1676,0,8.5894-.14a37.066,37.066,0,0,0,.3174,4.6211h-1.0806c-.102-.27-.1738-.4766-.2163-.6192a6.0836,6.0836,0,0,0-.979-2.0986,2.8447,2.8447,0,0,0-1.6016-.291H205.1q-.1019,2.1415-.127,6.2207l2.2144.0254a4.0229,4.0229,0,0,0,2.1318-.3369,5.1961,5.1961,0,0,0,.8462-2.2657h1.0537q-.14,1.8663-.14,3.2881,0,1.3579.14,3.39h-1.0537a5.7594,5.7594,0,0,0-.6875-2.35,3.7471,3.7471,0,0,0-1.9975-.3037h-2.4947v7.0966h5.0528a3.8847,3.8847,0,0,0,1.1172-.1025,2.0213,2.0213,0,0,0,.8125-.5879,15.6637,15.6637,0,0,0,1.8154-2.7119h1.1172q-.7361,2.0933-1.5869,5.04-4.3295-.139-9.0518-.14-2.1453,0-5.9922.14v-.9394a9.2265,9.2265,0,0,0,2.4121-.6094q.4189-.2914.419-1.4727v-.4316l.0254-5.0273V91.8809l-.0127-1.8789a5.8609,5.8609,0,0,0-.14-1.6885,1.0325,1.0325,0,0,0-.54-.52A10.44,10.44,0,0,0,198.27,87.3486Z" transform="translate(-73.6411 -86.0283)"/><path class="cls-3" d="M215.4849,87.3486v-.9394q1.7424.1392,3.2436.14,1.5132,0,3.5611-.14,1.5468,2.0815,9.3056,11.5146l-.0508-6.9062a14.8583,14.8583,0,0,0-.1967-2.8115.9483.9483,0,0,0-.438-.4454,10.7225,10.7225,0,0,0-2.1455-.4121v-.9394q2.0442.1392,3.5673.14,1.473,0,3.7579-.14v.9394q-.3935.0762-.584.1016a4.29,4.29,0,0,0-1.79.5019,1.705,1.705,0,0,0-.3427,1.1231q-.1268,1.7769-.127,7.3125,0,3.5552.14,8.125a12.07,12.07,0,0,0-1.1807.4189l-4.8115-6.0771-7.3379-8.9365.0508,6.039.1015,5.875a2.6509,2.6509,0,0,0,.127.8321.6784.6784,0,0,0,.2539.2734,8.202,8.202,0,0,0,1.8027.4453q.1781.0249.5332.1016v.9394q-2.1877-.139-3.51-.14-1.1316,0-3.84.14v-.9394c.2622-.0508.4615-.0889.5967-.1143a5.2206,5.2206,0,0,0,1.7393-.4443.7627.7627,0,0,0,.2539-.3994q.0762-.2608.165-3.7774.14-5.09.14-8.7344a5.5084,5.5084,0,0,0-.1333-1.5615,1.0237,1.0237,0,0,0-.4761-.5332,7.42,7.42,0,0,0-1.7393-.4443Q215.9036,87.4375,215.4849,87.3486Z" transform="translate(-73.6411 -86.0283)"/><path class="cls-3" d="M253.3169,91.7539h-1.1807q-.876-2.6792-1.0727-3.0342a1.0977,1.0977,0,0,0-.5523-.5019,9.3251,9.3251,0,0,0-2.26-.1455H247.02V99.93a12.6785,12.6785,0,0,0,.1524,2.666.6677.6677,0,0,0,.3745.3877,15.4131,15.4131,0,0,0,2.3042.501v.9394q-3.8724-.139-4.9766-.14-1.4977,0-4.583.14v-.9394a12.2236,12.2236,0,0,0,2.4121-.5586.734.734,0,0,0,.3491-.4639,18.1758,18.1758,0,0,0,.0952-2.6592v-11.73h-2.1328a3.6992,3.6992,0,0,0-1.4282.1777,1.3475,1.3475,0,0,0-.5776.6475,21.9893,21.9893,0,0,0-.9649,2.8564h-1.1552q.216-1.8662.2666-2.5771t.1142-2.7676q5.0274.1392,9.8262.1142,4.0627-.0381,5.84-.1142A44.3317,44.3317,0,0,0,253.3169,91.7539Z" transform="translate(-73.6411 -86.0283)"/></svg>